<!DOCTYPE svg PUBLIC "-//W3C//DTD SVG 1.1//EN" "http://www.w3.org/Graphics/SVG/1.1/DTD/svg11.dtd">
<!-- Uploaded to: SVG Repo, www.svgrepo.com, Transformed by: SVG Repo Mixer Tools -->
<svg fill="#000000" width="800px" height="800px" viewBox="0 0 846.66 846.66" style="shape-rendering:geometricPrecision; text-rendering:geometricPrecision; image-rendering:optimizeQuality; fill-rule:evenodd; clip-rule:evenodd" version="1.1" xml:space="preserve" xmlns="http://www.w3.org/2000/svg" xmlns:xlink="http://www.w3.org/1999/xlink">
<g id="SVGRepo_bgCarrier" stroke-width="0"/>
<g id="SVGRepo_tracerCarrier" stroke-linecap="round" stroke-linejoin="round"/>
<g id="SVGRepo_iconCarrier"> <defs> <style type="text/css">  .fil0 {fill:black;fill-rule:nonzero}  </style> </defs> <g id="Layer_x0020_1"> <path class="fil0" d="M564.69 522.49c0,30.81 24.97,55.78 55.77,55.78 30.81,0 55.78,-24.97 55.78,-55.78 0,-30.8 -24.97,-55.77 -55.78,-55.77 -31.16,0 -55.77,25.33 -55.77,55.77zm-41.55 1.63l-222.59 0c-0.87,53.1 -44.2,95.71 -97.32,95.71 -53.12,0 -96.45,-42.61 -97.32,-95.71l-77.8 0c-11.48,0 -20.78,-9.3 -20.78,-20.78l0 -118.66c0,-8.5 5.1,-15.8 12.41,-19.02l202.54 -106.51c13.93,-7.33 30.4,2.96 30.4,18.35l0.04 86.4 28.29 0 0 -49.07c0,-11.48 9.31,-20.78 20.78,-20.78l93.78 0c11.48,0 20.79,9.3 20.79,20.78l0 49.07 102.92 0 0 -24.2 -77.16 -77.16c-19.33,-19.33 10.06,-48.72 29.38,-29.39l83.26 83.26c3.76,3.76 6.09,8.95 6.09,14.69l0 32.8 140.51 0c75.93,0 137.97,62.05 137.97,137.98 0,12.1 -10.3,21.63 -22.35,20.72l-99.19 1.17c-0.68,53.24 -44.08,96.06 -97.33,96.06 -53.11,0 -96.44,-42.61 -97.32,-95.71zm-231.12 -41.56l239.65 0c15.7,-34.85 50.37,-57.41 88.79,-57.41 38.39,0 73.03,22.51 88.76,57.32l86.36 -1.02c-9.62,-44.02 -48.99,-75.99 -94.22,-75.99 -156.47,0 -312.95,0 -469.42,0 -11.48,0 -20.78,-9.3 -20.78,-20.78l0 -72.83 -162.27 85.33 0 85.38 65.55 0c15.7,-34.86 50.36,-57.41 88.79,-57.41 38.43,0 73.09,22.55 88.79,57.41zm-88.79 -15.84c-30.8,0 -55.77,24.97 -55.77,55.77 0,30.81 24.97,55.78 55.77,55.78 30.81,0 55.78,-24.97 55.78,-55.78 0,-30.8 -24.98,-55.77 -55.78,-55.77zm171.56 -102.82l0 -28.29 -52.22 0 0 28.29 52.22 0z"/> </g> </g>
</svg>