<!DOCTYPE svg PUBLIC "-//W3C//DTD SVG 1.1//EN" "http://www.w3.org/Graphics/SVG/1.1/DTD/svg11.dtd">
<!-- Uploaded to: SVG Repo, www.svgrepo.com, Transformed by: SVG Repo Mixer Tools -->
<svg fill="#393939" width="800px" height="800px" viewBox="0 0 1024 1024" xmlns="http://www.w3.org/2000/svg" stroke="#393939">
<g id="SVGRepo_bgCarrier" stroke-width="0"/>
<g id="SVGRepo_tracerCarrier" stroke-linecap="round" stroke-linejoin="round"/>
<g id="SVGRepo_iconCarrier">
<path d="M669.269 502.605c0 22.62-18.34 40.96-40.96 40.96s-40.96-18.34-40.96-40.96 18.34-40.96 40.96-40.96 40.96 18.34 40.96 40.96zm-235.315 0c0 22.62-18.34 40.96-40.96 40.96s-40.96-18.34-40.96-40.96 18.34-40.96 40.96-40.96 40.96 18.34 40.96 40.96z"/>
<path d="M907.279 561.784c0-191.025-177.037-346.993-396.626-346.993-219.595 0-396.626 155.965-396.626 346.993s177.031 346.993 396.626 346.993c219.589 0 396.626-155.968 396.626-346.993zm40.96 0c0 214.883-196.449 387.953-437.586 387.953-241.143 0-437.586-173.067-437.586-387.953S269.51 173.831 510.653 173.831c241.137 0 437.586 173.07 437.586 387.953z"/>
<path d="M361.143 228.797c9.771 5.698 22.311 2.396 28.008-7.375s2.396-22.311-7.375-28.008L184.072 78.122c-28.259-16.468-57.339.239-57.339 32.939v262.605c0 11.311 9.169 20.48 20.48 20.48s20.48-9.169 20.48-20.48V115.987l193.449 112.811zm496.713 155.109c0 11.311 9.169 20.48 20.48 20.48s20.48-9.169 20.48-20.48V111.061c0-32.7-29.08-49.407-57.334-32.942L643.773 193.414c-9.771 5.698-13.073 18.238-7.375 28.008s18.238 13.073 28.008 7.375l193.449-112.811v267.919zM461.151 608.829h99c33.679 0 48.979 30.22 29.043 57.36l-43.852 59.735c-18.188 24.76-51.195 24.76-69.387-.005l-43.844-59.725c-19.94-27.145-4.64-57.365 29.039-57.365zm47.819 92.846c1.821 2.479 1.541 2.479 3.358.005l38.093-51.891h-79.54l38.089 51.886z"/>
<path d="M481.375 723.05c-16.704 39.48-55.475 65.672-99.083 65.672-43.063 0-81.444-25.539-98.48-64.278-4.553-10.354-16.638-15.056-26.992-10.503s-15.056 16.638-10.503 26.992c23.519 53.48 76.522 88.749 135.975 88.749 60.207 0 113.746-36.169 136.806-90.672 4.407-10.417-.464-22.434-10.881-26.841s-22.434.464-26.841 10.881z"/>
<path d="M502.206 739.011c23.06 54.503 76.599 90.672 136.806 90.672 59.453 0 112.456-35.268 135.975-88.749 4.553-10.354-.149-22.438-10.503-26.992s-22.438.149-26.992 10.503c-17.036 38.739-55.418 64.278-98.48 64.278-43.608 0-82.379-26.193-99.083-65.672-4.407-10.417-16.425-15.288-26.841-10.881s-15.288 16.425-10.881 26.841zM796.42 523.676l207.708-55.654c10.925-2.927 17.409-14.157 14.482-25.083s-14.157-17.409-25.083-14.482l-207.708 55.654c-10.925 2.927-17.409 14.157-14.482 25.083s14.157 17.409 25.083 14.482zm-8.964 82.438h215.04c11.311 0 20.48-9.169 20.48-20.48s-9.169-20.48-20.48-20.48h-215.04c-11.311 0-20.48 9.169-20.48 20.48s9.169 20.48 20.48 20.48zm-1.637 81.042l207.708 55.654c10.925 2.927 22.155-3.556 25.083-14.482s-3.556-22.155-14.482-25.083L796.42 647.591c-10.925-2.927-22.155 3.556-25.083 14.482s3.556 22.155 14.482 25.083zM237.157 484.112L29.449 428.458c-10.925-2.927-22.155 3.556-25.083 14.482s3.556 22.155 14.482 25.083l207.708 55.654c10.925 2.927 22.155-3.556 25.083-14.482s-3.556-22.155-14.482-25.083zm-1.637 81.042H20.48c-11.311 0-20.48 9.169-20.48 20.48s9.169 20.48 20.48 20.48h215.04c11.311 0 20.48-9.169 20.48-20.48s-9.169-20.48-20.48-20.48zm-8.964 82.437L18.848 703.245c-10.925 2.927-17.409 14.157-14.482 25.083s14.157 17.409 25.083 14.482l207.708-55.654c10.925-2.927 17.409-14.157 14.482-25.083s-14.157-17.409-25.083-14.482z"/>
</g>
</svg>