<!DOCTYPE svg PUBLIC "-//W3C//DTD SVG 1.1//EN" "http://www.w3.org/Graphics/SVG/1.1/DTD/svg11.dtd">
<!-- Uploaded to: SVG Repo, www.svgrepo.com, Transformed by: SVG Repo Mixer Tools -->
<svg width="800px" height="800px" viewBox="0 0 24 24" version="1.1" xml:space="preserve" xmlns="http://www.w3.org/2000/svg" xmlns:xlink="http://www.w3.org/1999/xlink" fill="#373737" stroke="#373737">
<g id="SVGRepo_bgCarrier" stroke-width="0"/>
<g id="SVGRepo_tracerCarrier" stroke-linecap="round" stroke-linejoin="round"/>
<g id="SVGRepo_iconCarrier"> <style type="text/css"> .st0{opacity:0.2;fill:none;stroke:#292929;stroke-width:5.000000e-02;stroke-miterlimit:10;} </style> <g id="Layer_Grid"/> <g id="Layer_2"> <path d="M4.9,20.9c0.4,0,0.8-0.1,1.3-0.2C6.7,20.5,7,20,6.9,19.4c-0.2-0.5-0.7-0.8-1.2-0.7c-0.4,0.1-0.6,0.1-0.7,0.1 c-0.1,0-0.1,0-0.1,0c-0.1-0.1-0.1-0.9,0.7-2.3C6.9,18.6,9.3,20,12,20c4.4,0,8-3.6,8-8c0-2.7-1.4-5.1-3.4-6.6 c1.5-0.8,2.2-0.8,2.3-0.7c0,0,0.1,0.2-0.1,0.9c-0.2,0.5,0.2,1.1,0.7,1.2c0.1,0,0.2,0,0.3,0c0.4,0,0.8-0.3,1-0.7 c0.5-1.6,0-2.4-0.4-2.9c-1.3-1.3-3.8-0.2-5.9,1.1C13.6,4.1,12.8,4,12,4c-4.4,0-8,3.6-8,8c0,0.8,0.1,1.6,0.4,2.4 c-1.3,2-2.4,4.5-1.1,5.9C3.6,20.6,4.1,20.9,4.9,20.9z M12,6c3.3,0,6,2.7,6,6s-2.7,6-6,6s-6-2.7-6-6S8.7,6,12,6z"/> <path d="M11,16c0,0.6,0.4,1,1,1s1-0.4,1-1v-0.6l1-1V15c0,0.6,0.4,1,1,1s1-0.4,1-1v-2.6l0.7-0.7c0.4-0.4,0.4-1,0-1.4s-1-0.4-1.4,0 L14.6,11H12c-0.6,0-1,0.4-1,1s0.4,1,1,1h0.6l-1,1H11c-0.6,0-1,0.4-1,1S10.4,16,11,16z"/> </g> </g>
</svg>